<?xml version="1.0" encoding="utf-8"?>
<!-- Generator: Adobe Illustrator 17.0.0, SVG Export Plug-In . SVG Version: 6.00 Build 0)  -->
<!DOCTYPE svg PUBLIC "-//W3C//DTD SVG 1.1//EN" "http://www.w3.org/Graphics/SVG/1.1/DTD/svg11.dtd">
<svg version="1.1" id="Layer_1" xmlns="http://www.w3.org/2000/svg" xmlns:xlink="http://www.w3.org/1999/xlink" x="0px" y="0px"
	 width="70px" height="70px" viewBox="0 0 70 70" enable-background="new 0 0 70 70" xml:space="preserve">
<path fill="#20A05A" d="M68.752,23.391c-0.58-2.085-3.29-2.615-4.606-0.893c-3.289,4.303-7.262,7.868-11.709,10.594l3.049-5.757
	c0.265-0.5,0.074-1.121-0.426-1.386c-0.5-0.265-1.121-0.074-1.386,0.426l-4.52,8.534c-3.306,1.643-6.826,2.851-10.486,3.589
	l16.869-26.898l4.567,2.637l-4.191,7.912c-0.265,0.5-0.074,1.121,0.426,1.386c0.501,0.265,1.121,0.074,1.386-0.426l4.193-7.917
	c1.802,0.606,3.85-0.117,4.839-1.83c1.126-1.951,0.456-4.455-1.495-5.581l-6.714-3.876c-1.951-1.126-4.454-0.456-5.58,1.495
	c-0.988,1.711-0.593,3.847,0.835,5.107L35.961,38.952c-0.694,0.095-1.393,0.173-2.096,0.234c-0.991-4.831-3.626-10.476-6.107-12.957
	c-0.965-0.965-2.08-1.73-3.312-2.275c-0.518-0.229-1.123,0.006-1.352,0.524c-0.229,0.518,0.006,1.124,0.524,1.352
	c0.999,0.441,1.904,1.063,2.69,1.848c2.115,2.115,4.535,7.318,5.486,11.637c-1.458,0.057-2.92,0.045-4.521-0.057l-0.999-0.999h1.379
	c0.566,0,1.025-0.459,1.025-1.025c0-0.566-0.459-1.025-1.025-1.025h-3.43l-3.471-3.471h3.736c0.567,0,1.025-0.459,1.025-1.025
	c0-0.567-0.459-1.025-1.025-1.025h-5.787l-3.833-3.833c1.255-0.984,2.748-1.581,4.374-1.737c0.564-0.054,0.977-0.555,0.922-1.119
	c-0.054-0.563-0.554-0.976-1.118-0.922c-2.074,0.2-4.039,1.016-5.634,2.322l-5.16-5.16c-0.401-0.401-1.049-0.401-1.45,0
	c-0.4,0.401-0.4,1.049,0,1.45l5.159,5.158c-1.669,2.043-2.5,4.667-2.345,7.312c-1.859-1.016-3.655-2.174-5.374-3.476
	c-1.703-1.289-4.205-0.127-4.205,2.102c0,13.966,8.206,26.15,20.242,31.74c-0.551,0.582-0.89,1.367-0.89,2.23
	c0,1.79,1.456,3.246,3.246,3.246h24.794c1.79,0,3.246-1.456,3.246-3.246c0-0.854-0.333-1.633-0.875-2.213
	C65.414,57.319,73.323,39.818,68.752,23.391z M54.743,6.423c0.561-0.972,1.808-1.306,2.78-0.745l6.714,3.876
	c0.974,0.562,1.307,1.806,0.745,2.78c-0.562,0.974-1.806,1.307-2.78,0.745c-0.928-0.536,1.656,0.955-6.714-3.876
	C54.516,8.642,54.182,7.395,54.743,6.423z M17.102,37.356v-5.37l2.996,2.996v3.203C19.088,37.945,18.089,37.669,17.102,37.356z
	 M22.149,37.033l1.897,1.898c-0.636-0.089-1.268-0.193-1.897-0.31V37.033z M13.42,28.304l1.632,1.632v6.711
	c-1.092-0.409-2.166-0.863-3.223-1.362C11.304,32.781,11.885,30.261,13.42,28.304z M46.988,63.508H29.704
	c-0.566,0-1.025,0.459-1.025,1.025s0.459,1.025,1.025,1.025h17.727c0.659,0,1.195,0.536,1.195,1.195c0,0.66-0.536,1.196-1.195,1.196
	H22.637c-0.659,0-1.196-0.536-1.196-1.196c0-0.659,0.536-1.195,1.196-1.195h2.283c0.567,0,1.025-0.459,1.025-1.025
	s-0.459-1.025-1.025-1.025h-1.791C10.766,58.713,2.089,46.555,2.089,32.753c0.001-0.469,0.543-0.718,0.916-0.435
	c19.571,14.817,47.658,11.192,62.769-8.575c0.289-0.378,0.875-0.26,1.002,0.198C71.224,39.923,63.203,57.237,46.988,63.508z"/>
<path fill="#20A05A" d="M28.475,22.843c3.806,0,9.999-2.516,12.402-4.92c2.985-2.984,3.254-7.654,0.783-10.853l3.68-3.68
	c0.401-0.401,0.401-1.049,0-1.45c-0.4-0.4-1.049-0.4-1.45,0l-3.68,3.68c-3.2-2.47-7.869-2.201-10.853,0.783
	c-1.489,1.49-3.092,4.515-4.081,7.708c-0.673,2.175-1.553,6.074,0.133,7.76C26.129,22.591,27.253,22.843,28.475,22.843z
	 M27.235,14.718c0.884-2.854,2.319-5.612,3.572-6.865c2.186-2.186,5.552-2.445,7.938-0.768l-0.911,0.911h-5.766
	c-0.566,0-1.025,0.459-1.025,1.025c0,0.566,0.459,1.025,1.025,1.025h3.716l-1.722,1.722h-3.146c-0.567,0-1.025,0.459-1.025,1.025
	c0,0.566,0.459,1.025,1.025,1.025h1.096l-3.507,3.506c-0.648,0.648-0.18,1.75,0.725,1.75c0.262,0,0.524-0.1,0.725-0.3l2.108-2.108
	v0.397c0,0.566,0.459,1.025,1.025,1.025c0.566,0,1.025-0.459,1.025-1.025v-2.448l1.468-1.468v2.153c0,0.566,0.459,1.025,1.025,1.025
	c0.567,0,1.025-0.459,1.025-1.025v-4.204c1.702-1.702,0.875-0.875,2.563-2.563c1.678,2.387,1.414,5.756-0.768,7.938
	c-1.252,1.252-4.011,2.688-6.864,3.572c-3.189,0.988-5.192,0.888-5.703,0.376C26.347,19.909,26.247,17.906,27.235,14.718z"/>
</svg>
